<svg width="513" height="513" viewBox="0 0 513 513" fill="none" xmlns="http://www.w3.org/2000/svg">
<g clip-path="url(#clip0_0_1)">
<path d="M17.25 493.132C20.875 482.944 25.594 469.991 30.875 456.569C50.75 405.927 61.282 390.787 65.813 386.271C72.594 379.474 81.001 374.896 90.126 373.005L93.282 372.349L128.626 336.599L170.938 385.474L138.032 416.99L137.344 420.225C135.469 429.35 130.875 437.756 124.094 444.569C119.563 449.069 104.438 459.631 53.812 479.492C40.376 484.757 27.406 489.507 17.25 493.132Z" fill="#FFCE54"/>
<path d="M129.158 320.943L87.97 362.584C77.251 364.803 66.844 370.193 58.282 378.756C36.407 400.63 0 510.366 0 510.366C0 510.366 109.72 473.975 131.626 452.084C140.157 443.537 145.564 433.115 147.782 422.381L185.594 386.161L129.158 320.943ZM133.064 407.005L128.283 411.599L126.939 418.083C125.47 425.162 121.877 431.725 116.564 437.037C114.814 438.787 103.345 448.615 50.001 469.554C44.907 471.538 39.907 473.46 35.095 475.257C36.907 470.445 38.814 465.445 40.814 460.381C61.752 407.021 71.564 395.552 73.345 393.802C78.658 388.474 85.221 384.896 92.283 383.443L98.595 382.131L103.126 377.553L128.095 352.272L156.251 384.788L133.064 407.005Z" fill="#F6BB42"/>
<path d="M199.909 423.397C205.878 420.6 211.847 417.63 217.784 414.521L339.285 327.74C344.254 323.099 349.16 318.349 354.004 313.537C356.785 310.725 359.567 307.912 362.286 305.068C361.817 360.427 336.441 420.991 288.254 469.195C272.192 485.242 254.785 498.757 236.629 509.679C236.504 509.757 235.784 510.179 235.784 510.179C231.753 512.367 226.596 511.757 223.19 508.351C222.065 507.21 221.252 505.882 220.752 504.476C220.752 504.476 220.377 503.367 220.283 502.882L198.345 424.115C198.878 423.881 199.378 423.631 199.909 423.397Z" fill="#DA4453"/>
<path d="M207.534 150.269C204.69 153.003 201.878 155.785 199.065 158.581C194.252 163.409 189.502 168.315 184.877 173.284C163.596 176.284 98.065 294.801 98.065 294.801C94.971 300.739 92.003 306.693 89.19 312.677C88.94 313.193 88.721 313.708 88.471 314.224L9.688 292.285C9.219 292.191 8.094 291.816 8.094 291.816C6.688 291.316 5.375 290.504 4.219 289.363C0.812997 285.957 0.218997 280.816 2.407 276.769C2.407 276.769 2.813 276.066 2.907 275.941C13.813 257.784 27.313 240.378 43.376 224.316C91.595 176.097 152.158 150.722 207.534 150.269Z" fill="#DA4453"/>
<path d="M197.003 151.05C136.595 211.472 93.033 280.488 68.751 347.349C67.47 351.099 68.282 355.38 71.282 358.365L154.189 441.303C157.189 444.272 161.47 445.1 165.22 443.819C232.096 419.537 301.097 375.99 361.505 315.568C455.381 221.723 508.068 108.487 512.006 11.923C512.131 9.048 511.1 5.876 508.912 3.673C506.693 1.47 503.537 0.438998 500.631 0.563998C404.069 4.501 290.848 57.205 197.003 151.05Z" fill="#E6E9ED"/>
<path d="M317.598 237.535C306.223 237.535 295.536 233.097 287.504 225.066C279.473 217.019 275.035 206.331 275.035 194.956C275.035 183.581 279.473 172.893 287.504 164.846C295.535 156.815 306.254 152.377 317.598 152.377C328.973 152.377 339.66 156.815 347.723 164.846C364.318 181.456 364.318 208.471 347.723 225.066C339.661 233.097 328.973 237.535 317.629 237.535C317.598 237.535 317.598 237.535 317.598 237.535Z" fill="#434A54"/>
<path d="M227.284 327.849C215.909 327.849 205.222 323.427 197.19 315.38C189.158 307.349 184.72 296.645 184.72 285.285C184.72 273.91 189.158 263.207 197.19 255.16C205.221 247.129 215.909 242.691 227.284 242.691C238.66 242.691 249.347 247.129 257.41 255.16C274.004 271.77 274.004 298.786 257.41 315.38C249.347 323.427 238.66 327.849 227.284 327.849Z" fill="#434A54"/>
<path d="M355.254 157.331C345.192 147.284 331.816 141.737 317.598 141.737C303.41 141.737 290.036 147.284 279.973 157.331C269.942 167.378 264.379 180.753 264.379 194.956C264.379 209.175 269.941 222.535 279.973 232.597C290.035 242.643 303.411 248.175 317.598 248.175C331.817 248.175 345.192 242.644 355.254 232.597C376.005 211.847 376.005 178.082 355.254 157.331ZM340.192 217.535C333.942 223.769 325.786 226.894 317.598 226.894C309.442 226.894 301.254 223.769 295.036 217.535C282.567 205.066 282.567 184.847 295.036 172.378C301.255 166.144 309.442 163.034 317.598 163.034C325.786 163.034 333.942 166.143 340.192 172.378C352.66 184.847 352.66 205.066 340.192 217.535Z" fill="#CCD1D9"/>
<path d="M227.284 232.067C213.065 232.067 199.722 237.598 189.658 247.645C179.596 257.691 174.064 271.067 174.064 285.286C174.064 299.49 179.595 312.849 189.658 322.912C199.721 332.959 213.065 338.506 227.284 338.506C241.504 338.506 254.879 332.959 264.942 322.912C285.692 302.162 285.692 268.395 264.942 247.645C254.879 237.598 241.504 232.067 227.284 232.067ZM249.879 307.849C243.629 314.099 235.472 317.208 227.284 317.208C219.128 317.208 210.94 314.099 204.722 307.849C192.252 295.379 192.252 275.161 204.722 262.692C210.941 256.457 219.128 253.348 227.284 253.348C235.472 253.348 243.629 256.457 249.879 262.692C262.348 275.16 262.348 295.379 249.879 307.849Z" fill="#CCD1D9"/>
<path d="M479.225 145.816L366.755 33.361C412.568 13.439 458.225 2.298 500.631 0.563998C503.537 0.438998 506.693 1.47 508.912 3.673C511.1 5.876 512.131 9.048 512.006 11.923C510.287 54.361 499.131 100.003 479.225 145.816Z" fill="#DA4453"/>
</g>
<defs>
<clipPath id="clip0_0_1">
<rect width="512.016" height="512.016" fill="white"/>
</clipPath>
</defs>
</svg>
